<?xml version="1.0" standalone="no"?><!DOCTYPE svg PUBLIC "-//W3C//DTD SVG 1.1//EN" "http://www.w3.org/Graphics/SVG/1.1/DTD/svg11.dtd"><svg t="1523449848785" class="icon" style="" viewBox="0 0 1024 1024" version="1.1" xmlns="http://www.w3.org/2000/svg" p-id="5399" xmlns:xlink="http://www.w3.org/1999/xlink" width="200" height="200"><defs><style type="text/css"></style></defs><path d="M689.94048 358.76352c-149.18144 90.0608-288.23552 161.86368-379.5968 206.73024H165.02272L1.04448 398.97088l74.32192-25.43616L212.64384 425.7792l42.65472 21.28896a5559.91552 5559.91552 0 0 1 107.35616-82.16064l-177.4592-286.83776 0.20992-1.19296c-0.9984-10.6496-0.11776-21.54496 5.1456-31.7952C205.4144 16.13824 241.19296 4.57216 270.4384 19.24096L588.288 178.63168c8.12544 4.08576 14.17216 10.10176 19.21536 16.76288C791.6544 79.65696 972.6464-1.536 1016.97024 90.53696c24.1152 50.09408-46.90944 99.13856-327.02976 268.22656z m-228.7616 248.4224c0.52224-7.46496 1.64864-14.42304 2.3552-21.74464 22.8352-11.96032 46.72512-24.65792 71.69024-38.23104-2.65216 19.49184-4.82304 39.45472-5.93408 59.97568h186.08128c-2.87744-54.65088-11.5712-106.73664-24.72448-148.20352 10.81856-6.4 21.60128-12.76416 32.53248-19.35872 8.47872-5.12 16.17408-9.78944 24.25856-14.6944 20.57216 50.57024 35.0208 112.8192 39.91552 182.25664h110.90944c-13.6448-82.24768-63.03744-152.3712-131.80416-193.75616 25.43616-15.4368 48.61952-29.63456 70.1952-42.96704 85.5552 64.86528 141.07136 167.2704 141.07136 282.89536 0 191.89248-152.2688 347.82208-342.528 354.56-2.2784 0.2048-4.54144 0.73216-6.85056 0.73216-0.82944 0-1.664-0.2304-2.5088-0.256-1.11616 0-2.19136 0.1536-3.32288 0.1536-186.4192 0-338.9952-143.6928-353.7408-326.30272 32.28672-15.08352 85.65248-40.63744 152.832-75.0592h39.56736z m439.61344 66.46272h-111.57504c-1.8944 91.93472-19.2512 172.81024-46.54592 231.808a279.1936 279.1936 0 0 0 158.12096-231.808z m-278.08256 259.14368c55.1424 0 89.62048-130.03776 93.4912-259.14368H528.4352c3.95776 129.10592 39.13216 259.14368 94.26944 259.14368z m-110.47936-22.6304c-30.44864-59.38688-50.59584-142.12608-52.75136-236.51328H344.39168c7.79776 106.31168 74.27072 196.28544 167.83872 236.51328z m0 0" fill="#272636" p-id="5400"></path></svg>