<?xml version="1.0" standalone="no"?><!DOCTYPE svg PUBLIC "-//W3C//DTD SVG 1.1//EN" "http://www.w3.org/Graphics/SVG/1.1/DTD/svg11.dtd"><svg t="1523449819593" class="icon" style="" viewBox="0 0 1024 1024" version="1.1" xmlns="http://www.w3.org/2000/svg" p-id="5207" xmlns:xlink="http://www.w3.org/1999/xlink" width="200" height="200"><defs><style type="text/css"></style></defs><path d="M852.16 925.184H170.432A170.624 170.624 0 0 1 0 754.752v-584.32A170.688 170.688 0 0 1 170.432 0h681.728a170.688 170.688 0 0 1 170.432 170.432v584.32a170.56 170.56 0 0 1-170.432 170.432zM170.432 48.704A121.856 121.856 0 0 0 48.704 170.432v584.32c0 67.136 54.592 121.728 121.728 121.728h681.728a121.856 121.856 0 0 0 121.664-121.728v-584.32A121.856 121.856 0 0 0 852.16 48.704H170.432z" fill="#4D4D4D" p-id="5208"></path><path d="M511.296 486.976a292.48 292.48 0 0 1-292.16-292.224 24.32 24.32 0 1 1 48.64 0 243.776 243.776 0 0 0 243.52 243.52 243.776 243.776 0 0 0 243.456-243.52 24.32 24.32 0 0 1 48.704 0 292.48 292.48 0 0 1-292.16 292.224z" fill="#4D4D4D" p-id="5209"></path></svg>